<svg id="Слой_1" xmlns="http://www.w3.org/2000/svg" viewBox="0 0 290 360"><style>.st0{fill:#4a535c}.st1{fill:#33414c}.st2,.st3{fill:none;stroke:#fff;stroke-width:20;stroke-linecap:round;stroke-miterlimit:10}.st3{stroke-width:18}</style><path class="st0" d="M0 0h244.1L290 45.8v285L260.8 360l-29.6-29.5-28.7 28.6-28.6-28.6-29.1 28.9-29-28.9-29.1 28.9-28.6-28.6-28.7 28.6L0 330.1z"/><path class="st1" d="M243.3 0v48.4H290v-2.6L244.1 0z"/><path class="st2" d="M94.8 211.3c2.1-2.5 22-25 53.7-22.7 27.9 2 43.8 21.8 46.3 24.9"/><path class="st3" d="M83.8 92.4l40.4 41.1M83.8 133.5l40.4-41.1"/><g><path class="st3" d="M164.7 92.4l40.4 41.1M164.7 133.5l40.4-41.1"/></g></svg>