<svg id="Capa_1" xmlns="http://www.w3.org/2000/svg" viewBox="0 0 70 40"><style>.st0{fill:#00bebe}</style><path class="st0" d="M62.1 16.7c1-1.3 1.8-2.3 2.4-3.1 4.2-5.6 6-9.2 5.5-10.7l-.2-.4c-.1-.2-.5-.4-1.1-.6-.6-.2-1.4-.2-2.3-.1l-10.7.1H55c-.2.1-.4.1-.5.1-.1 0-.1.1-.2.1l-.1.1c-.1.1-.3.2-.4.4-.1.2-.3.4-.4.6-1.1 2.9-2.4 5.7-3.9 8.2-.9 1.5-1.7 2.8-2.5 3.9s-1.4 1.9-1.9 2.4-1 .9-1.4 1.3c-.4.3-.7.5-.9.4-.2 0-.4-.1-.6-.1-.3-.2-.6-.5-.8-.9-.2-.3-.4-.8-.4-1.4-.1-.6-.1-1.1-.1-1.5v-1.8-1.5c0-.9 0-1.9.1-3V6.7v-2c0-.7 0-1.3-.1-1.7-.1-.4-.2-.8-.4-1.2-.2-.4-.4-.7-.7-.9-.3-.2-.7-.4-1.2-.5-1.3-.2-2.9-.4-4.9-.4-4.5 0-7.4.2-8.7.9-.5.3-1 .6-1.4 1.1-.4.5-.5.8-.2.9 1.5.2 2.5.7 3.1 1.6l.2.4c.2.3.3.9.5 1.7.2.8.3 1.7.3 2.7.1 1.8.1 3.3 0 4.6-.1 1.3-.2 2.3-.3 3-.1.7-.3 1.3-.5 1.7-.2.4-.4.7-.4.8-.1.1-.1.2-.2.2-.3.1-.6.2-1 .2-.3 0-.8-.2-1.2-.5-.5-.3-1-.8-1.5-1.4-.5-.6-1.1-1.4-1.8-2.5s-1.3-2.3-2-3.8l-.6-1.3c-.4-.7-.9-1.7-1.5-3s-1.2-2.6-1.7-3.8c-.2-.5-.5-.9-.9-1.2l-.2-.1c-.1-.1-.3-.2-.6-.3-.3-.1-.5-.2-.8-.2l-10 .1c-1 0-1.7.2-2.1.7l-.1.2c-.1.2-.1.4-.1.6 0 .3.1.6.2 1 1.5 3.4 3 6.7 4.8 9.9 1.7 3.2 3.2 5.8 4.5 7.7 1.3 1.9 2.6 3.8 3.9 5.5 1.3 1.7 2.2 2.8 2.6 3.3.4.5.8.9 1 1.1l.9.9c.6.6 1.4 1.3 2.6 2.1 1.1.8 2.4 1.6 3.8 2.4 1.4.8 3 1.4 4.8 1.9 1.8.5 3.6.7 5.3.6h4.2c.9-.1 1.5-.3 1.9-.8l.1-.2c.1-.1.2-.4.3-.7.1-.3.1-.6.1-1 0-1 .1-2 .2-2.8.2-.8.4-1.5.6-1.9.2-.4.5-.8.8-1.1.3-.3.5-.5.6-.5.1-.1.2-.1.3-.1.6-.2 1.3 0 2.1.6s1.5 1.3 2.2 2.1c.7.8 1.5 1.8 2.5 2.8 1 1 1.8 1.8 2.6 2.3l.7.4c.5.3 1.1.6 1.9.8.8.2 1.5.3 2 .2l9.3-.1c.9 0 1.6-.2 2.2-.5.5-.3.8-.6.9-1 .1-.4.1-.8 0-1.2-.1-.5-.2-.8-.3-1-.1-.2-.2-.3-.2-.5-1.2-2.2-3.5-4.9-7-8.1l-.1-.1c-1.6-1.5-2.5-2.5-3-3-.8-1-.9-2-.5-3 .3-.5 1.4-2.1 3.3-4.6z"/></svg>