<?xml version="1.0" encoding="utf-8"?>
<!-- Generator: Adobe Illustrator 22.1.0, SVG Export Plug-In . SVG Version: 6.00 Build 0)  -->
<svg version="1.1" id="Слой_1" xmlns="http://www.w3.org/2000/svg" xmlns:xlink="http://www.w3.org/1999/xlink" x="0px" y="0px"
	 viewBox="0 0 75 30" width="75px" height="30px" style="enable-background:new 0 0 75 30;" xml:space="preserve">
<style type="text/css">
	.st0{fill:#3C3F41;}
	.st1{fill:#00CCCC;}
</style>
<g>
	<g>
		<g>
			<rect x="58.6" y="8.9" class="st0" width="3.3" height="17.8"/>
		</g>
		<rect x="58.6" y="0.3" class="st1" width="3.3" height="5.3"/>
		<rect y="0.3" class="st1" width="3.3" height="26.4"/>
		<g>
			<path class="st0" d="M69.1,17.9v-5.6h4.2V9h-4.2V0.3h-3.3v17.6c0,5.1,4.1,9.2,9.3,9.2v-3.3C71.7,23.7,69.1,21.1,69.1,17.9z"/>
		</g>
		<path class="st1" d="M33.8,13.4C33.8,6,27.7,0,20.2,0S6.5,6,6.5,13.4c0,6.6,4.9,12.2,11.3,13.2L31.6,30l0.8-3.3l-5.8-1.4
			C30.8,23,33.8,18.6,33.8,13.4z M9.9,13.4c0-5.6,4.6-10.1,10.3-10.1s10.3,4.5,10.3,10.1s-4.6,10.1-10.3,10.1S9.9,19,9.9,13.4z"/>
		<g>
			<g>
				<path class="st0" d="M46.2,8.7c-2.2,0-4.3,0.8-5.9,2.1V0.3H37v17.5c0,5.1,4.1,9.2,9.3,9.2s9.3-4.1,9.3-9.2
					C55.5,12.8,51.4,8.7,46.2,8.7z M46.2,23.7c-3.3,0-5.9-2.6-5.9-5.9c0-3.2,2.6-5.9,5.9-5.9s5.9,2.6,5.9,5.9
					C52.2,21.1,49.5,23.7,46.2,23.7z"/>
			</g>
		</g>
	</g>
</g>
</svg>
