<svg xmlns="http://www.w3.org/2000/svg" viewBox="0 0 75 27.92"><defs><style>.a{fill:#0cc;}.b{fill:#fff;}</style></defs><title>logo</title><path class="a" d="M0,3.24C0,1.34.92.39,2.78.39H5.47V27.21H0Z"/><path class="a" d="M24.74,27.21a21.25,21.25,0,0,1-3.93.39q-5.92,0-9.32-3.63T8,13.8A14.5,14.5,0,0,1,11.49,3.7,12.15,12.15,0,0,1,20.81,0a12.28,12.28,0,0,1,9.41,3.7,14.54,14.54,0,0,1,3.46,10.1A18,18,0,0,1,33,19a11.5,11.5,0,0,1-2.08,4l2.85,2.78L32.3,27.21a1.94,1.94,0,0,1-2.93.08L27.83,25.9A11.38,11.38,0,0,1,24.74,27.21ZM21.2,19.58l.92-1a2.45,2.45,0,0,1,3.39-.47l1.55,1.16a7.28,7.28,0,0,0,.84-2.47,12.29,12.29,0,0,0,.31-3,10.39,10.39,0,0,0-1.93-6.71A6.76,6.76,0,0,0,20.81,4.7a6.54,6.54,0,0,0-5.39,2.39,10.8,10.8,0,0,0-1.93,6.71,10.7,10.7,0,0,0,1.93,6.78A6.54,6.54,0,0,0,20.81,23a10.68,10.68,0,0,0,1.7-.15,10.85,10.85,0,0,0,1.54-.54Z"/><path class="b" d="M41.7,9.25A6.55,6.55,0,0,1,47.64,6Q56,6.32,56,17q0,10.41-9.71,10.56t-9.79-9.33V.39h2.62A2.31,2.31,0,0,1,41.7,3Zm4.47,1.46c-2.82,0-4.32,2-4.47,6q-.08,6.32,4.39,6.32c3,0,4.48-2.11,4.48-6.32C50.46,12.72,49,10.71,46.17,10.71Z"/><path class="b" d="M61.05,6.32a2.25,2.25,0,0,1,2.54,2.54V27.21H58.35V6.32Z"/><path class="b" d="M69.49,26.94q-3-.27-2.89-3.74V.39h2.7a2.43,2.43,0,0,1,1.77.77A2.53,2.53,0,0,1,71.84,3V6.32H75V7.48a2.51,2.51,0,0,1-.77,1.89,2.62,2.62,0,0,1-1.85.73h-.54V21.66c0,.87.51,1.31,1.54,1.31H75v4A30.88,30.88,0,0,1,69.49,26.94Z"/><path class="a" d="M61.05.39c1.75,0,2.59.84,2.54,2.54V4.47H58.35V.39Z"/></svg>