<svg xmlns="http://www.w3.org/2000/svg" viewBox="0 0 94.01 35"><defs><style>.a{fill:#0cc;}.b{fill:#fff;}</style></defs><title>logo</title><path class="a" d="M0,4.06Q0,.48,3.48.48H6.86V34.11H0Z"/><path class="a" d="M31,34.11a27.26,27.26,0,0,1-4.92.48q-7.44,0-11.69-4.54-4.35-4.74-4.35-12.76,0-7.81,4.35-12.65Q18.74,0,26.09,0T37.87,4.64q4.35,4.83,4.35,12.65a22.48,22.48,0,0,1-.87,6.48,14.36,14.36,0,0,1-2.61,5l3.58,3.48-1.84,1.84c-1.29,1.15-2.51,1.19-3.67.09l-1.93-1.74A14.32,14.32,0,0,1,31,34.11Zm-4.44-9.57,1.16-1.26A3.07,3.07,0,0,1,32,22.7l1.93,1.45A9.26,9.26,0,0,0,35,21.06a16.17,16.17,0,0,0,.38-3.77q0-5.4-2.41-8.4a8.49,8.49,0,0,0-6.86-3,8.21,8.21,0,0,0-6.77,3,13.55,13.55,0,0,0-2.41,8.4q0,5.41,2.41,8.51a8.23,8.23,0,0,0,6.77,3,12.8,12.8,0,0,0,2.12-.19,11.61,11.61,0,0,0,1.93-.68Z"/><path class="b" d="M52.27,11.59a8.19,8.19,0,0,1,7.44-4q10.42.38,10.43,13.72,0,13-12.17,13.23T45.7,22.8V.48H49q3.29,0,3.29,3.29Zm5.6,1.84q-5.31,0-5.6,7.54-.1,7.92,5.51,7.92T63.38,21Q63.19,13.43,57.87,13.43Z"/><path class="b" d="M76.52,7.92c2.13,0,3.19,1.07,3.19,3.19v23H73.14V7.92Z"/><path class="b" d="M87.1,33.77q-3.72-.35-3.62-4.69V.48h3.38a3.08,3.08,0,0,1,2.22,1,3.18,3.18,0,0,1,1,2.32V7.92h4V9.37a3.13,3.13,0,0,1-1,2.37,3.26,3.26,0,0,1-2.32.92h-.67V27.15c0,1.09.64,1.64,1.93,1.64h2v5A39.08,39.08,0,0,1,87.1,33.77Z"/><path class="a" d="M76.52.48c2.19,0,3.25,1.07,3.19,3.19V5.6H73.14V.48Z"/></svg>